<svg width="196" height="66" viewBox="0 0 196 66" fill="none" xmlns="http://www.w3.org/2000/svg">
<path fill-rule="evenodd" clip-rule="evenodd" d="M1 33C1 15.3269 15.3269 1 33 1H163C180.673 1 195 15.3269 195 33V33C195 50.6731 180.673 65 163 65H33C15.3269 65 1 50.6731 1 33V33Z" stroke="white"/>
<path d="M79.337 23.117C79.337 23.9017 79.1793 24.5873 78.864 25.174C78.5487 25.7533 78.083 26.2043 77.467 26.527C76.8583 26.8423 76.125 27 75.267 27H72.803V19.245H75.267C76.125 19.245 76.8583 19.4027 77.467 19.718C78.083 20.026 78.5487 20.4733 78.864 21.06C79.1793 21.6393 79.337 22.325 79.337 23.117ZM75.19 26.098C76.202 26.098 76.9757 25.8377 77.511 25.317C78.0463 24.7963 78.314 24.063 78.314 23.117C78.314 22.171 78.0463 21.4377 77.511 20.917C76.983 20.389 76.2093 20.125 75.19 20.125H73.804V26.098H75.19ZM83.4268 20.884C84.0061 20.884 84.5231 21.0087 84.9778 21.258C85.4398 21.5073 85.7991 21.8667 86.0558 22.336C86.3198 22.8053 86.4518 23.3553 86.4518 23.986C86.4518 24.6167 86.3198 25.1667 86.0558 25.636C85.7991 26.098 85.4398 26.4537 84.9778 26.703C84.5231 26.9523 84.0061 27.077 83.4268 27.077C82.8474 27.077 82.3268 26.9523 81.8648 26.703C81.4101 26.4537 81.0508 26.098 80.7868 25.636C80.5228 25.1667 80.3908 24.6167 80.3908 23.986C80.3908 23.3553 80.5228 22.8053 80.7868 22.336C81.0508 21.8667 81.4101 21.5073 81.8648 21.258C82.3268 21.0087 82.8474 20.884 83.4268 20.884ZM83.4268 21.764C83.0674 21.764 82.7338 21.8447 82.4258 22.006C82.1251 22.1673 81.8794 22.4167 81.6888 22.754C81.5054 23.084 81.4138 23.4947 81.4138 23.986C81.4138 24.47 81.5054 24.8807 81.6888 25.218C81.8794 25.548 82.1251 25.7937 82.4258 25.955C82.7338 26.1163 83.0674 26.197 83.4268 26.197C83.7861 26.197 84.1161 26.1163 84.4168 25.955C84.7248 25.7937 84.9704 25.548 85.1538 25.218C85.3444 24.8807 85.4398 24.47 85.4398 23.986C85.4398 23.4947 85.3444 23.084 85.1538 22.754C84.9704 22.4167 84.7248 22.1673 84.4168 22.006C84.1161 21.8447 83.7861 21.764 83.4268 21.764ZM96.0501 20.961L94.3121 27H93.2341L91.5731 22.083L89.9011 27H88.8121L87.0961 20.961H88.1081L89.3951 26.043L91.0671 20.961H92.1121L93.7951 26.032L95.0931 20.961H96.0501ZM100.163 20.862C100.867 20.862 101.435 21.0893 101.868 21.544C102.3 21.9913 102.517 22.6403 102.517 23.491V27H101.516V23.579C101.516 22.9777 101.362 22.5157 101.054 22.193C100.746 21.8703 100.328 21.709 99.7997 21.709C99.2497 21.709 98.8097 21.8887 98.4797 22.248C98.1497 22.6 97.9847 23.117 97.9847 23.799V27H96.9837V20.961H97.9847V22.391C98.1387 21.8997 98.41 21.522 98.7987 21.258C99.1947 20.994 99.6493 20.862 100.163 20.862ZM105.053 18.86V27H104.052V18.86H105.053ZM109.401 20.884C109.981 20.884 110.498 21.0087 110.952 21.258C111.414 21.5073 111.774 21.8667 112.03 22.336C112.294 22.8053 112.426 23.3553 112.426 23.986C112.426 24.6167 112.294 25.1667 112.03 25.636C111.774 26.098 111.414 26.4537 110.952 26.703C110.498 26.9523 109.981 27.077 109.401 27.077C108.822 27.077 108.301 26.9523 107.839 26.703C107.385 26.4537 107.025 26.098 106.761 25.636C106.497 25.1667 106.365 24.6167 106.365 23.986C106.365 23.3553 106.497 22.8053 106.761 22.336C107.025 21.8667 107.385 21.5073 107.839 21.258C108.301 21.0087 108.822 20.884 109.401 20.884ZM109.401 21.764C109.042 21.764 108.708 21.8447 108.4 22.006C108.1 22.1673 107.854 22.4167 107.663 22.754C107.48 23.084 107.388 23.4947 107.388 23.986C107.388 24.47 107.48 24.8807 107.663 25.218C107.854 25.548 108.1 25.7937 108.4 25.955C108.708 26.1163 109.042 26.197 109.401 26.197C109.761 26.197 110.091 26.1163 110.391 25.955C110.699 25.7937 110.945 25.548 111.128 25.218C111.319 24.8807 111.414 24.47 111.414 23.986C111.414 23.4947 111.319 23.084 111.128 22.754C110.945 22.4167 110.699 22.1673 110.391 22.006C110.091 21.8447 109.761 21.764 109.401 21.764ZM116.206 20.884C116.792 20.884 117.287 21.0307 117.691 21.324C118.101 21.6173 118.387 22.0097 118.549 22.501V20.961H119.55V27H118.549V25.46C118.387 25.9513 118.101 26.3437 117.691 26.637C117.287 26.9303 116.792 27.077 116.206 27.077C115.67 27.077 115.194 26.9523 114.776 26.703C114.358 26.4537 114.028 26.098 113.786 25.636C113.551 25.1667 113.434 24.6167 113.434 23.986C113.434 23.3553 113.551 22.8053 113.786 22.336C114.028 21.8667 114.358 21.5073 114.776 21.258C115.194 21.0087 115.67 20.884 116.206 20.884ZM116.492 21.775C115.876 21.775 115.381 21.973 115.007 22.369C114.64 22.7577 114.457 23.2967 114.457 23.986C114.457 24.6753 114.64 25.218 115.007 25.614C115.381 26.0027 115.876 26.197 116.492 26.197C116.888 26.197 117.24 26.1053 117.548 25.922C117.863 25.7387 118.109 25.482 118.285 25.152C118.461 24.8147 118.549 24.426 118.549 23.986C118.549 23.546 118.461 23.1573 118.285 22.82C118.109 22.4827 117.863 22.226 117.548 22.05C117.24 21.8667 116.888 21.775 116.492 21.775ZM123.618 20.884C124.205 20.884 124.7 21.0307 125.103 21.324C125.514 21.6173 125.8 22.0097 125.961 22.501V18.86H126.962V27H125.961V25.46C125.8 25.9513 125.514 26.3437 125.103 26.637C124.7 26.9303 124.205 27.077 123.618 27.077C123.083 27.077 122.606 26.9523 122.188 26.703C121.77 26.4537 121.44 26.098 121.198 25.636C120.963 25.1667 120.846 24.6167 120.846 23.986C120.846 23.3553 120.963 22.8053 121.198 22.336C121.44 21.8667 121.77 21.5073 122.188 21.258C122.606 21.0087 123.083 20.884 123.618 20.884ZM123.904 21.775C123.288 21.775 122.793 21.973 122.419 22.369C122.052 22.7577 121.869 23.2967 121.869 23.986C121.869 24.6753 122.052 25.218 122.419 25.614C122.793 26.0027 123.288 26.197 123.904 26.197C124.3 26.197 124.652 26.1053 124.96 25.922C125.275 25.7387 125.521 25.482 125.697 25.152C125.873 24.8147 125.961 24.426 125.961 23.986C125.961 23.546 125.873 23.1573 125.697 22.82C125.521 22.4827 125.275 22.226 124.96 22.05C124.652 21.8667 124.3 21.775 123.904 21.775ZM134.012 20.884C134.591 20.884 135.108 21.0087 135.563 21.258C136.025 21.5073 136.384 21.8667 136.641 22.336C136.905 22.8053 137.037 23.3553 137.037 23.986C137.037 24.6167 136.905 25.1667 136.641 25.636C136.384 26.098 136.025 26.4537 135.563 26.703C135.108 26.9523 134.591 27.077 134.012 27.077C133.432 27.077 132.912 26.9523 132.45 26.703C131.995 26.4537 131.636 26.098 131.372 25.636C131.108 25.1667 130.976 24.6167 130.976 23.986C130.976 23.3553 131.108 22.8053 131.372 22.336C131.636 21.8667 131.995 21.5073 132.45 21.258C132.912 21.0087 133.432 20.884 134.012 20.884ZM134.012 21.764C133.652 21.764 133.319 21.8447 133.011 22.006C132.71 22.1673 132.464 22.4167 132.274 22.754C132.09 23.084 131.999 23.4947 131.999 23.986C131.999 24.47 132.09 24.8807 132.274 25.218C132.464 25.548 132.71 25.7937 133.011 25.955C133.319 26.1163 133.652 26.197 134.012 26.197C134.371 26.197 134.701 26.1163 135.002 25.955C135.31 25.7937 135.555 25.548 135.739 25.218C135.929 24.8807 136.025 24.47 136.025 23.986C136.025 23.4947 135.929 23.084 135.739 22.754C135.555 22.4167 135.31 22.1673 135.002 22.006C134.701 21.8447 134.371 21.764 134.012 21.764ZM141.52 20.862C142.224 20.862 142.792 21.0893 143.225 21.544C143.658 21.9913 143.874 22.6403 143.874 23.491V27H142.873V23.579C142.873 22.9777 142.719 22.5157 142.411 22.193C142.103 21.8703 141.685 21.709 141.157 21.709C140.607 21.709 140.167 21.8887 139.837 22.248C139.507 22.6 139.342 23.117 139.342 23.799V27H138.341V20.961H139.342V22.391C139.496 21.8997 139.767 21.522 140.156 21.258C140.552 20.994 141.007 20.862 141.52 20.862ZM151.009 26.12V27H150.261C149.645 27 149.183 26.8533 148.875 26.56C148.575 26.2667 148.424 25.7753 148.424 25.086V21.83H147.522V20.961H148.424V19.454H149.436V20.961H150.998V21.83H149.436V25.108C149.436 25.4967 149.506 25.7643 149.645 25.911C149.792 26.0503 150.041 26.12 150.393 26.12H151.009ZM155.41 20.862C156.114 20.862 156.682 21.0893 157.115 21.544C157.547 21.9913 157.764 22.6403 157.764 23.491V27H156.763V23.579C156.763 22.9777 156.609 22.5157 156.301 22.193C155.993 21.8703 155.575 21.709 155.047 21.709C154.497 21.709 154.057 21.8887 153.727 22.248C153.397 22.6 153.232 23.117 153.232 23.799V27H152.231V18.86H153.232V22.391C153.386 21.8997 153.657 21.522 154.046 21.258C154.442 20.994 154.896 20.862 155.41 20.862ZM164.854 23.645C164.854 23.8577 164.839 24.041 164.81 24.195H159.981C160.003 24.8843 160.197 25.4013 160.564 25.746C160.938 26.0907 161.393 26.263 161.928 26.263C162.412 26.263 162.815 26.142 163.138 25.9C163.468 25.6507 163.67 25.3207 163.743 24.91H164.81C164.737 25.328 164.572 25.702 164.315 26.032C164.066 26.362 163.739 26.6187 163.336 26.802C162.933 26.9853 162.478 27.077 161.972 27.077C161.393 27.077 160.879 26.9523 160.432 26.703C159.985 26.4537 159.633 26.098 159.376 25.636C159.127 25.1667 159.002 24.6167 159.002 23.986C159.002 23.3553 159.127 22.8053 159.376 22.336C159.633 21.8667 159.985 21.5073 160.432 21.258C160.879 21.0087 161.393 20.884 161.972 20.884C162.559 20.884 163.068 21.0087 163.501 21.258C163.941 21.5073 164.275 21.841 164.502 22.259C164.737 22.677 164.854 23.139 164.854 23.645ZM163.842 23.711C163.864 23.2637 163.791 22.8897 163.622 22.589C163.453 22.2883 163.222 22.0647 162.929 21.918C162.636 21.7713 162.317 21.698 161.972 21.698C161.422 21.698 160.96 21.8703 160.586 22.215C160.212 22.5523 160.01 23.051 159.981 23.711H163.842Z" fill="white"/>
<path fill-rule="evenodd" clip-rule="evenodd" d="M80.5713 45.6162L79.4122 42.1914H74.5823L73.4231 45.6162H71.377L75.9522 32.9444H78.0773L82.6526 45.6162H80.5713ZM76.9708 35.0519L75.0828 40.6107H78.9115L77.0235 35.0519H76.9708ZM88.7731 35.9827C91.2056 35.9827 92.8039 37.8883 92.8039 40.8477C92.8039 43.7983 91.2144 45.7127 88.817 45.7127C87.4471 45.7127 86.367 45.1068 85.7962 44.053H85.7611V48.7336H83.8555V36.0793H85.6908V37.66H85.7347C86.2704 36.6326 87.4471 35.9827 88.7731 35.9827ZM88.2903 44.0969C89.8359 44.0969 90.8545 42.8236 90.8545 40.8477C90.8545 38.8807 89.8359 37.5986 88.2903 37.5986C86.7799 37.5986 85.7524 38.907 85.7437 40.8477C85.7524 42.7973 86.7711 44.0969 88.2903 44.0969ZM99.2409 35.9827C101.673 35.9827 103.272 37.8883 103.272 40.8477C103.272 43.7983 101.682 45.7127 99.2848 45.7127C97.9149 45.7127 96.8348 45.1068 96.264 44.053H96.2288V48.7336H94.3232V36.0793H96.1586V37.66H96.2025C96.7382 36.6326 97.9149 35.9827 99.2409 35.9827ZM98.7578 44.0969C100.303 44.0969 101.322 42.8236 101.322 40.8477C101.322 38.8807 100.303 37.5986 98.7578 37.5986C97.2474 37.5986 96.22 38.907 96.2112 40.8477C96.22 42.7973 97.2386 44.0969 98.7578 44.0969ZM108.567 42.0859C108.69 44.3779 110.587 45.8269 113.397 45.8269C116.4 45.8269 118.288 44.3428 118.288 41.9718C118.288 40.1189 117.208 39.0739 114.609 38.4592L113.212 38.1167C111.579 37.7127 110.912 37.1858 110.912 36.2901C110.912 35.1661 111.957 34.3933 113.485 34.3933C115.013 34.3933 116.058 35.1573 116.172 36.4218H118.086C118.025 34.2352 116.189 32.7336 113.511 32.7336C110.806 32.7336 108.901 34.2352 108.901 36.4218C108.901 38.1869 109.981 39.2758 112.308 39.8379L113.95 40.233C115.592 40.637 116.286 41.2253 116.286 42.2089C116.286 43.3417 115.136 44.1672 113.537 44.1672C111.869 44.1672 110.648 43.3417 110.508 42.0859H108.567ZM120.431 33.9367V36.0794H119.114V37.5811H120.431V43.1047C120.431 44.9488 121.168 45.6777 123.074 45.6777C123.487 45.6777 123.935 45.6337 124.145 45.5811V44.0794C124.022 44.097 123.697 44.1233 123.496 44.1233C122.696 44.1233 122.328 43.7369 122.328 42.9115V37.5811H124.154V36.0794H122.328V33.9367H120.431ZM129.845 45.7302C127.087 45.7302 125.331 43.851 125.331 40.8477C125.331 37.8532 127.096 35.9564 129.845 35.9564C132.593 35.9564 134.349 37.8444 134.349 40.8477C134.349 43.851 132.602 45.7302 129.845 45.7302ZM129.844 44.1496C131.46 44.1496 132.417 42.9289 132.417 40.8477C132.417 38.7665 131.46 37.537 129.844 37.537C128.229 37.537 127.263 38.7752 127.263 40.8477C127.263 42.9289 128.229 44.1496 129.844 44.1496ZM135.877 45.6161H137.783V39.9256C137.783 38.5821 138.573 37.7127 139.829 37.7127C140.11 37.7127 140.505 37.7742 140.663 37.8356V36.053C140.514 36.0091 140.242 35.9827 140.031 35.9827C138.907 35.9827 138.029 36.6238 137.73 37.6863H137.695V36.0793H135.877V45.6161ZM145.889 37.5108C144.519 37.5108 143.526 38.5119 143.421 39.9784H148.26C148.216 38.4943 147.276 37.5108 145.889 37.5108ZM148.251 42.8235H150.069C149.796 44.5359 148.119 45.7302 145.976 45.7302C143.21 45.7302 141.489 43.8685 141.489 40.8828C141.489 37.8971 143.228 35.9564 145.897 35.9564C148.514 35.9564 150.165 37.7741 150.165 40.6633V41.3307H143.412V41.4448C143.412 43.0958 144.448 44.1847 146.012 44.1847C147.118 44.1847 147.987 43.6578 148.251 42.8235Z" fill="white"/>
<path fill-rule="evenodd" clip-rule="evenodd" d="M52.8128 16.9999C51.2986 17.0633 49.4639 18.0054 48.378 19.2723C47.4019 20.3973 46.5498 22.1927 46.7796 23.9141C48.47 24.046 50.1927 23.0587 51.2449 21.7913C52.295 20.5215 53.0061 18.7596 52.8128 16.9999ZM52.3846 46.9599C54.4361 46.9218 55.7356 45.1043 56.9917 43.2755C58.3675 41.2733 58.9751 39.3318 59.0664 39.0407L59.0769 39.0076C59.031 38.9871 55.0755 37.4788 55.0371 32.9411C54.9986 29.1425 58.1465 27.3192 58.2864 27.2277C56.5174 24.6507 53.763 24.2973 52.7815 24.257C51.3479 24.1126 49.9571 24.6585 48.8208 25.1046C48.0987 25.388 47.4793 25.631 47.0171 25.631C46.5025 25.631 45.8662 25.3795 45.1521 25.0971C44.2173 24.7275 43.1492 24.3052 42.0467 24.3255C39.4927 24.3636 37.136 25.8061 35.8208 28.0861C33.1648 32.6771 35.1397 39.4798 37.7271 43.2022C38.9937 45.0229 40.4998 47.0718 42.4803 46.9981C43.3645 46.9627 43.9939 46.6957 44.6446 46.4197C45.3968 46.1006 46.1778 45.7693 47.4143 45.7693C48.5921 45.7693 49.3367 46.0904 50.053 46.3991C50.7383 46.6944 51.3975 46.9786 52.3846 46.9599Z" fill="white"/>
</svg>
