<svg width="25" height="25" viewBox="0 0 25 25" fill="none" xmlns="http://www.w3.org/2000/svg">
<rect width="25" height="25" fill="white"/>
<path d="M19.7801 5.21993C19.4868 4.92669 19.0128 4.92669 18.7196 5.21993L12.5 11.4395L6.28041 5.21993C5.98716 4.92669 5.51317 4.92669 5.21993 5.21993C4.92669 5.51317 4.92669 5.98716 5.21993 6.28041L11.4395 12.5L5.21993 18.7196C4.92669 19.0128 4.92669 19.4868 5.21993 19.7801C5.36618 19.9263 5.55817 19.9998 5.75017 19.9998C5.94216 19.9998 6.13416 19.9263 6.28041 19.7801L12.5 13.5605L18.7196 19.7801C18.8658 19.9263 19.0578 19.9998 19.2498 19.9998C19.4418 19.9998 19.6338 19.9263 19.7801 19.7801C20.0733 19.4868 20.0733 19.0128 19.7801 18.7196L13.5605 12.5L19.7801 6.28041C20.0733 5.98716 20.0733 5.51317 19.7801 5.21993Z" fill="#463A3E"/>
</svg>
