<svg width="30" height="30" viewBox="0 0 30 30" fill="none" xmlns="http://www.w3.org/2000/svg">
<rect width="30" height="30" fill="white"/>
<path fill-rule="evenodd" clip-rule="evenodd" d="M21.8314 1.24618C26.1009 1.24618 29.5125 4.74313 29.9504 9.56306C29.9845 9.77595 30.1264 10.8964 29.6948 12.7231C29.0729 15.3592 27.6362 17.7559 25.5413 19.6547L21.6244 23.1489C17.8072 26.5543 12.0354 26.5298 8.24717 23.0921L4.45861 19.6541C2.36367 17.7559 0.927037 15.3586 0.305075 12.7231C-0.126491 10.8958 0.0154413 9.77538 0.0500589 9.56248C0.487394 4.74256 3.89953 1.24561 8.16846 1.24561C11.8599 1.24561 18.005 1.31047 21.696 1.24734C21.7411 1.24657 21.7862 1.24618 21.8314 1.24618ZM24.7693 18.7967C26.6876 17.0589 28.0037 14.8659 28.5714 12.4588C28.9715 10.7651 28.8186 9.79265 28.8111 9.74485C28.811 9.74385 28.8109 9.74325 28.8109 9.74307C28.4283 5.46549 25.4962 2.4001 21.832 2.4001C19.0637 2.4001 16.5574 4.10213 15.4456 6.73538C15.2473 7.20544 14.5811 7.20544 14.3828 6.73538C13.2531 4.06117 10.8726 2.39952 8.1684 2.39952C4.50355 2.39952 1.57202 5.46491 1.19699 9.68768L1.18834 9.74595C1.18833 9.7461 1.18822 9.74681 1.18802 9.74807C1.18006 9.79946 1.02964 10.7705 1.42836 12.4582C1.99666 14.8653 3.31213 17.0578 5.23398 18.799L8.25372 21.5395C12.042 24.9775 17.8142 25.002 21.6315 21.5962L24.7693 18.7967Z" fill="#918A8C"/>
<path d="M9.59961 4.8924C6.29121 4.8924 3.59961 7.58399 3.59961 10.8924C3.59961 11.2242 3.86781 11.4924 4.19961 11.4924C4.53141 11.4924 4.79961 11.2242 4.79961 10.8924C4.79961 8.2458 6.95301 6.0924 9.59961 6.0924C9.93141 6.0924 10.1996 5.8242 10.1996 5.4924C10.1996 5.1606 9.93081 4.8924 9.59961 4.8924Z" fill="#918A8C"/>
</svg>
