<svg width="21" height="20" viewBox="0 0 21 20" fill="none" xmlns="http://www.w3.org/2000/svg">
<rect width="20" height="20" fill="white"/>
<path fill-rule="evenodd" clip-rule="evenodd" d="M5.97144 2.85715C5.79712 4.06644 4.75684 5 3.5 5C2.12134 5 1 3.8782 1 2.5C1 1.1218 2.12134 0 3.5 0C4.75684 0 5.79712 0.933563 5.97144 2.14285H19.9285C20.126 2.14285 20.2856 2.30249 20.2856 2.5C20.2856 2.69751 20.126 2.85715 19.9285 2.85715H5.97144ZM5.28589 2.5C5.28589 1.51538 4.48462 0.714294 3.5 0.714294C2.51538 0.714294 1.71436 1.51538 1.71436 2.5C1.71436 3.48465 2.51538 4.28574 3.5 4.28574C4.48462 4.28574 5.28589 3.48465 5.28589 2.5ZM17.7856 15C16.5288 15 15.4885 15.9336 15.3142 17.1429H1.35718C1.15991 17.1429 1 17.3025 1 17.5C1 17.6975 1.15991 17.8571 1.35718 17.8571H15.3142C15.4885 19.0664 16.5288 20 17.7856 20C19.1638 20 20.2856 18.8782 20.2856 17.5C20.2856 16.1218 19.1638 15 17.7856 15ZM16 17.5C16 18.4846 16.801 19.2857 17.7856 19.2857C18.7703 19.2857 19.5715 18.4846 19.5715 17.5C19.5715 16.5154 18.7703 15.7143 17.7856 15.7143C16.801 15.7143 16 16.5154 16 17.5ZM19.9285 9.64285H13.2742C13.1328 8.35641 12.0403 7.35214 10.7168 7.35214C9.39331 7.35214 8.30078 8.35678 8.15918 9.64285H1.35718C1.15991 9.64285 1 9.80249 1 10C1 10.1975 1.15991 10.3571 1.35718 10.3571H8.18188C8.38794 11.5714 9.44458 12.5 10.7168 12.5C11.989 12.5 13.0454 11.5714 13.2515 10.3571H19.9285C20.126 10.3571 20.2856 10.1975 20.2856 10C20.2856 9.80249 20.126 9.64285 19.9285 9.64285ZM8.85718 9.92609C8.85718 10.9514 9.69141 11.7857 10.7168 11.7857C11.7422 11.7857 12.5764 10.9514 12.5764 9.92609C12.5764 8.90073 11.7422 8.06644 10.7168 8.06644C9.69141 8.06644 8.85718 8.90073 8.85718 9.92609Z" fill="#828282"/>
</svg>
