<svg width="196" height="66" viewBox="0 0 196 66" fill="none" xmlns="http://www.w3.org/2000/svg">
<path d="M33 0.5C15.0507 0.5 0.5 15.0507 0.5 33C0.5 50.9493 15.0507 65.5 33 65.5H163C180.949 65.5 195.5 50.9493 195.5 33C195.5 15.0507 180.949 0.5 163 0.5H33Z" stroke="#FCF7F7" stroke-opacity="0.37"/>
<g opacity="0.3">
<path fill-rule="evenodd" clip-rule="evenodd" d="M30.7061 20.0552V45.9478C30.7061 46.849 31.2588 47.6282 32.062 48L47.9585 32.9971L32.0684 18C31.2617 18.3706 30.7061 19.1517 30.7061 20.0552ZM35.6248 47.2224L52.9998 37.7549L49.3281 34.2896L35.6248 47.2224ZM58.4009 31.1863C58.9788 31.6038 59.3516 32.2616 59.3516 33.0016C59.3516 33.7303 58.99 34.3793 58.427 34.7976L54.7363 36.8087L50.6975 32.9971L54.7334 29.188L58.4009 31.1863ZM52.9971 28.2419L35.635 18.7815L49.3281 31.7047L52.9971 28.2419Z" fill="#F8F4F4"/>
<path d="M74.1959 19.168C75.1419 19.168 75.9229 19.4027 76.5389 19.872C77.1549 20.334 77.5803 20.9683 77.8149 21.775H76.7589C76.5609 21.2617 76.2419 20.8547 75.8019 20.554C75.3619 20.246 74.8229 20.092 74.1849 20.092C73.6789 20.092 73.2243 20.2167 72.8209 20.466C72.4249 20.708 72.1096 21.06 71.8749 21.522C71.6476 21.9767 71.5339 22.512 71.5339 23.128C71.5339 23.7367 71.6476 24.2683 71.8749 24.723C72.1096 25.1777 72.4249 25.5297 72.8209 25.779C73.2243 26.021 73.6789 26.142 74.1849 26.142C74.8229 26.142 75.3619 25.9917 75.8019 25.691C76.2419 25.383 76.5609 24.9723 76.7589 24.459H77.8149C77.5803 25.2657 77.1549 25.9037 76.5389 26.373C75.9229 26.835 75.1419 27.066 74.1959 27.066C73.4699 27.066 72.8283 26.901 72.2709 26.571C71.7136 26.2337 71.2773 25.768 70.9619 25.174C70.6539 24.5727 70.4999 23.8907 70.4999 23.128C70.4999 22.358 70.6539 21.6723 70.9619 21.071C71.2773 20.4697 71.7136 20.004 72.2709 19.674C72.8283 19.3367 73.4699 19.168 74.1959 19.168ZM81.8926 20.884C82.4719 20.884 82.9889 21.0087 83.4436 21.258C83.9056 21.5073 84.2649 21.8667 84.5216 22.336C84.7856 22.8053 84.9176 23.3553 84.9176 23.986C84.9176 24.6167 84.7856 25.1667 84.5216 25.636C84.2649 26.098 83.9056 26.4537 83.4436 26.703C82.9889 26.9523 82.4719 27.077 81.8926 27.077C81.3133 27.077 80.7926 26.9523 80.3306 26.703C79.8759 26.4537 79.5166 26.098 79.2526 25.636C78.9886 25.1667 78.8566 24.6167 78.8566 23.986C78.8566 23.3553 78.9886 22.8053 79.2526 22.336C79.5166 21.8667 79.8759 21.5073 80.3306 21.258C80.7926 21.0087 81.3133 20.884 81.8926 20.884ZM81.8926 21.764C81.5333 21.764 81.1996 21.8447 80.8916 22.006C80.5909 22.1673 80.3453 22.4167 80.1546 22.754C79.9713 23.084 79.8796 23.4947 79.8796 23.986C79.8796 24.47 79.9713 24.8807 80.1546 25.218C80.3453 25.548 80.5909 25.7937 80.8916 25.955C81.1996 26.1163 81.5333 26.197 81.8926 26.197C82.2519 26.197 82.5819 26.1163 82.8826 25.955C83.1906 25.7937 83.4363 25.548 83.6196 25.218C83.8103 24.8807 83.9056 24.47 83.9056 23.986C83.9056 23.4947 83.8103 23.084 83.6196 22.754C83.4363 22.4167 83.1906 22.1673 82.8826 22.006C82.5819 21.8447 82.2519 21.764 81.8926 21.764ZM93.6469 20.862C94.3509 20.862 94.9156 21.0893 95.3409 21.544C95.7736 21.9913 95.9899 22.6403 95.9899 23.491V27H94.9889V23.579C94.9889 22.985 94.8423 22.5303 94.5489 22.215C94.2629 21.8997 93.8669 21.742 93.3609 21.742C92.8329 21.742 92.4076 21.918 92.0849 22.27C91.7696 22.6147 91.6119 23.1243 91.6119 23.799V27H90.6109V23.579C90.6109 22.985 90.4643 22.5303 90.1709 22.215C89.8776 21.8997 89.4816 21.742 88.9829 21.742C88.4476 21.742 88.0186 21.918 87.6959 22.27C87.3806 22.6147 87.2229 23.1243 87.2229 23.799V27H86.2219V20.961H87.2229V22.336C87.3696 21.8593 87.6299 21.4963 88.0039 21.247C88.3853 20.9903 88.8216 20.862 89.3129 20.862C89.8263 20.862 90.2699 20.994 90.6439 21.258C91.0253 21.5147 91.2966 21.896 91.4579 22.402C91.6266 21.9107 91.9089 21.533 92.3049 21.269C92.7009 20.9977 93.1483 20.862 93.6469 20.862ZM97.3682 19.19C97.3682 19.0067 97.4305 18.86 97.5552 18.75C97.6799 18.6327 97.8449 18.574 98.0502 18.574C98.2555 18.574 98.4205 18.6327 98.5452 18.75C98.6699 18.86 98.7322 19.0067 98.7322 19.19C98.7322 19.3733 98.6699 19.5237 98.5452 19.641C98.4205 19.751 98.2555 19.806 98.0502 19.806C97.8449 19.806 97.6799 19.751 97.5552 19.641C97.4305 19.5237 97.3682 19.3733 97.3682 19.19ZM98.5452 20.961V27H97.5442V20.961H98.5452ZM103.334 20.862C104.038 20.862 104.606 21.0893 105.039 21.544C105.471 21.9913 105.688 22.6403 105.688 23.491V27H104.687V23.579C104.687 22.9777 104.533 22.5157 104.225 22.193C103.917 21.8703 103.499 21.709 102.971 21.709C102.421 21.709 101.981 21.8887 101.651 22.248C101.321 22.6 101.156 23.117 101.156 23.799V27H100.155V20.961H101.156V22.391C101.31 21.8997 101.581 21.522 101.97 21.258C102.366 20.994 102.82 20.862 103.334 20.862ZM109.698 20.884C110.285 20.884 110.78 21.0307 111.183 21.324C111.594 21.6173 111.88 22.0097 112.041 22.501V20.961H113.042V27.099C113.042 27.6563 112.925 28.1513 112.69 28.584C112.455 29.0167 112.125 29.354 111.7 29.596C111.275 29.838 110.78 29.959 110.215 29.959C109.401 29.959 108.737 29.761 108.224 29.365C107.711 28.9763 107.384 28.4483 107.245 27.781H108.235C108.352 28.1843 108.572 28.4997 108.895 28.727C109.225 28.9617 109.647 29.079 110.16 29.079C110.703 29.079 111.15 28.903 111.502 28.551C111.861 28.2063 112.041 27.7223 112.041 27.099V25.46C111.88 25.9513 111.594 26.3437 111.183 26.637C110.78 26.9303 110.285 27.077 109.698 27.077C109.163 27.077 108.686 26.9523 108.268 26.703C107.85 26.4537 107.52 26.098 107.278 25.636C107.043 25.1667 106.926 24.6167 106.926 23.986C106.926 23.3553 107.043 22.8053 107.278 22.336C107.52 21.8667 107.85 21.5073 108.268 21.258C108.686 21.0087 109.163 20.884 109.698 20.884ZM109.984 21.775C109.368 21.775 108.873 21.973 108.499 22.369C108.132 22.7577 107.949 23.2967 107.949 23.986C107.949 24.6753 108.132 25.218 108.499 25.614C108.873 26.0027 109.368 26.197 109.984 26.197C110.38 26.197 110.732 26.1053 111.04 25.922C111.355 25.7387 111.601 25.482 111.777 25.152C111.953 24.8147 112.041 24.426 112.041 23.986C112.041 23.546 111.953 23.1573 111.777 22.82C111.601 22.4827 111.355 22.226 111.04 22.05C110.732 21.8667 110.38 21.775 109.984 21.775ZM119.245 20.884C119.927 20.884 120.473 21.0637 120.884 21.423C121.302 21.775 121.555 22.2517 121.643 22.853H120.686C120.642 22.4937 120.491 22.2003 120.235 21.973C119.985 21.7383 119.648 21.621 119.223 21.621C118.863 21.621 118.581 21.709 118.376 21.885C118.178 22.0537 118.079 22.2847 118.079 22.578C118.079 22.798 118.145 22.9777 118.277 23.117C118.416 23.249 118.585 23.3517 118.783 23.425C118.988 23.491 119.267 23.5643 119.619 23.645C120.066 23.7477 120.425 23.854 120.697 23.964C120.975 24.0667 121.21 24.2353 121.401 24.47C121.599 24.7047 121.698 25.02 121.698 25.416C121.698 25.9073 121.511 26.307 121.137 26.615C120.77 26.923 120.279 27.077 119.663 27.077C118.944 27.077 118.357 26.9047 117.903 26.56C117.448 26.2153 117.18 25.735 117.1 25.119H118.068C118.104 25.4857 118.262 25.7827 118.541 26.01C118.827 26.2373 119.201 26.351 119.663 26.351C120.007 26.351 120.275 26.263 120.466 26.087C120.664 25.911 120.763 25.68 120.763 25.394C120.763 25.1593 120.693 24.9723 120.554 24.833C120.414 24.6937 120.242 24.5873 120.037 24.514C119.831 24.4407 119.549 24.3637 119.19 24.283C118.742 24.1803 118.383 24.0777 118.112 23.975C117.848 23.8723 117.62 23.711 117.43 23.491C117.246 23.2637 117.155 22.9593 117.155 22.578C117.155 22.072 117.342 21.665 117.716 21.357C118.09 21.0417 118.599 20.884 119.245 20.884ZM125.774 20.884C126.354 20.884 126.871 21.0087 127.325 21.258C127.787 21.5073 128.147 21.8667 128.403 22.336C128.667 22.8053 128.799 23.3553 128.799 23.986C128.799 24.6167 128.667 25.1667 128.403 25.636C128.147 26.098 127.787 26.4537 127.325 26.703C126.871 26.9523 126.354 27.077 125.774 27.077C125.195 27.077 124.674 26.9523 124.212 26.703C123.758 26.4537 123.398 26.098 123.134 25.636C122.87 25.1667 122.738 24.6167 122.738 23.986C122.738 23.3553 122.87 22.8053 123.134 22.336C123.398 21.8667 123.758 21.5073 124.212 21.258C124.674 21.0087 125.195 20.884 125.774 20.884ZM125.774 21.764C125.415 21.764 125.081 21.8447 124.773 22.006C124.473 22.1673 124.227 22.4167 124.036 22.754C123.853 23.084 123.761 23.4947 123.761 23.986C123.761 24.47 123.853 24.8807 124.036 25.218C124.227 25.548 124.473 25.7937 124.773 25.955C125.081 26.1163 125.415 26.197 125.774 26.197C126.134 26.197 126.464 26.1163 126.764 25.955C127.072 25.7937 127.318 25.548 127.501 25.218C127.692 24.8807 127.787 24.47 127.787 23.986C127.787 23.4947 127.692 23.084 127.501 22.754C127.318 22.4167 127.072 22.1673 126.764 22.006C126.464 21.8447 126.134 21.764 125.774 21.764ZM132.843 20.884C133.422 20.884 133.939 21.0087 134.394 21.258C134.856 21.5073 135.215 21.8667 135.472 22.336C135.736 22.8053 135.868 23.3553 135.868 23.986C135.868 24.6167 135.736 25.1667 135.472 25.636C135.215 26.098 134.856 26.4537 134.394 26.703C133.939 26.9523 133.422 27.077 132.843 27.077C132.263 27.077 131.743 26.9523 131.281 26.703C130.826 26.4537 130.467 26.098 130.203 25.636C129.939 25.1667 129.807 24.6167 129.807 23.986C129.807 23.3553 129.939 22.8053 130.203 22.336C130.467 21.8667 130.826 21.5073 131.281 21.258C131.743 21.0087 132.263 20.884 132.843 20.884ZM132.843 21.764C132.483 21.764 132.15 21.8447 131.842 22.006C131.541 22.1673 131.295 22.4167 131.105 22.754C130.921 23.084 130.83 23.4947 130.83 23.986C130.83 24.47 130.921 24.8807 131.105 25.218C131.295 25.548 131.541 25.7937 131.842 25.955C132.15 26.1163 132.483 26.197 132.843 26.197C133.202 26.197 133.532 26.1163 133.833 25.955C134.141 25.7937 134.386 25.548 134.57 25.218C134.76 24.8807 134.856 24.47 134.856 23.986C134.856 23.4947 134.76 23.084 134.57 22.754C134.386 22.4167 134.141 22.1673 133.833 22.006C133.532 21.8447 133.202 21.764 132.843 21.764ZM140.351 20.862C141.055 20.862 141.623 21.0893 142.056 21.544C142.489 21.9913 142.705 22.6403 142.705 23.491V27H141.704V23.579C141.704 22.9777 141.55 22.5157 141.242 22.193C140.934 21.8703 140.516 21.709 139.988 21.709C139.438 21.709 138.998 21.8887 138.668 22.248C138.338 22.6 138.173 23.117 138.173 23.799V27H137.172V20.961H138.173V22.391C138.327 21.8997 138.598 21.522 138.987 21.258C139.383 20.994 139.838 20.862 140.351 20.862Z" fill="#F8F4F4"/>
<path fill-rule="evenodd" clip-rule="evenodd" d="M139.736 40.8418C139.736 42.3242 139.388 43.5005 138.692 44.3706C137.995 45.2407 137.063 45.6758 135.894 45.6758C134.514 45.6758 133.457 45.2188 132.724 44.3047V49.1562H131.614V35.9902H132.649L132.705 37.335C133.433 36.3213 134.486 35.8145 135.866 35.8145C137.072 35.8145 138.019 36.2451 138.706 37.1064C139.393 37.9678 139.736 39.1631 139.736 40.6924V40.8418ZM138.617 40.6572C138.617 39.4443 138.353 38.4863 137.824 37.7832C137.296 37.0801 136.559 36.7285 135.615 36.7285C134.931 36.7285 134.343 36.8838 133.852 37.1943C133.361 37.5049 132.985 37.9561 132.724 38.5479V43.1094C132.991 43.6543 133.373 44.0703 133.871 44.3574C134.368 44.6445 134.956 44.7881 135.633 44.7881C136.572 44.7881 137.304 44.4351 137.829 43.729C138.354 43.0229 138.617 41.999 138.617 40.6572ZM143.457 45.5H142.338V32H143.457V45.5ZM152.856 45.5C152.744 45.2012 152.672 44.7588 152.641 44.1729C152.25 44.6533 151.751 45.0239 151.145 45.2847C150.539 45.5454 149.897 45.6758 149.219 45.6758C148.249 45.6758 147.465 45.4209 146.865 44.9111C146.265 44.4014 145.965 43.7568 145.965 42.9775C145.965 42.0518 146.374 41.3193 147.191 40.7803C148.008 40.2412 149.148 39.9717 150.609 39.9717H152.632V38.8906C152.632 38.2109 152.41 37.6763 151.965 37.2866C151.521 36.897 150.873 36.7021 150.021 36.7021C149.244 36.7021 148.601 36.8896 148.091 37.2646C147.581 37.6397 147.326 38.0908 147.326 38.6182L146.207 38.6094C146.207 37.8535 146.58 37.1987 147.326 36.645C148.072 36.0913 148.989 35.8145 150.077 35.8145C151.202 35.8145 152.09 36.0796 152.739 36.6099C153.389 37.1401 153.723 37.8799 153.742 38.8291V43.3291C153.742 44.249 153.844 44.9375 154.049 45.3945V45.5H152.856ZM149.35 44.7441C150.096 44.7441 150.762 44.5742 151.35 44.2344C151.937 43.8945 152.365 43.4404 152.632 42.8721V40.7803H150.636C149.524 40.792 148.653 40.9839 148.026 41.356C147.398 41.728 147.084 42.2393 147.084 42.8896C147.084 43.4229 147.294 43.8652 147.713 44.2168C148.133 44.5684 148.678 44.7441 149.35 44.7441ZM159.915 43.9883L162.861 35.9902H164.064L159.756 47.1172L159.532 47.6094C158.979 48.7637 158.124 49.3408 156.968 49.3408C156.701 49.3408 156.415 49.2998 156.11 49.2178L156.101 48.3477L156.679 48.4004C157.226 48.4004 157.669 48.273 158.008 48.0181C158.347 47.7632 158.634 47.3252 158.87 46.7041L159.365 45.4209L155.56 35.9902H156.782L159.915 43.9883Z" fill="#F8F4F4"/>
<path fill-rule="evenodd" clip-rule="evenodd" d="M68.8994 38.8181C68.8994 35.1005 72.2212 32.0762 76.1654 32.0762C78.3476 32.0762 79.8913 32.8761 81.0713 33.9121L79.7135 35.1919C78.8648 34.4606 77.7656 33.874 76.2058 33.874C73.3285 33.874 71.0816 36.068 71.0816 38.7724C71.0816 41.4768 73.3366 43.6708 76.2058 43.6708C78.0808 43.6708 79.1235 42.9776 79.8185 42.3148C80.3681 41.7968 80.7399 41.035 80.8854 39.9837H76.1654V38.1554H82.7362C82.809 38.4677 82.8494 38.8867 82.8494 39.2981C82.8494 40.6845 82.4453 42.391 81.1602 43.6099C79.9074 44.8211 78.3152 45.4839 76.1815 45.4839C72.2131 45.5297 68.8994 42.5052 68.8994 38.8181Z" fill="#F8F4F4"/>
<path fill-rule="evenodd" clip-rule="evenodd" d="M88.1517 43.823C86.7535 43.823 85.5654 42.7489 85.5654 41.1796C85.5654 39.6103 86.7778 38.5361 88.1517 38.5361C89.55 38.5361 90.7381 39.6103 90.7381 41.1796C90.7219 42.7489 89.5096 43.823 88.1517 43.823ZM88.1518 36.8755C85.6059 36.8755 83.5449 38.681 83.5449 41.2178C83.5449 43.7241 85.6059 45.56 88.1518 45.56C90.6977 45.56 92.7587 43.7241 92.7587 41.2178C92.7587 38.681 90.6896 36.8755 88.1518 36.8755Z" fill="#F8F4F4"/>
<path fill-rule="evenodd" clip-rule="evenodd" d="M98.2133 43.823C96.815 43.823 95.627 42.7489 95.627 41.1796C95.627 39.6103 96.8393 38.5361 98.2133 38.5361C99.5711 38.5361 100.8 39.6103 100.8 41.1796C100.8 42.7489 99.6196 43.823 98.2133 43.823ZM98.2133 36.8755C95.6674 36.8755 93.6064 38.681 93.6064 41.2178C93.6064 43.7241 95.6674 45.56 98.2133 45.56C100.759 45.56 102.82 43.7241 102.82 41.2178C102.82 38.681 100.759 36.8755 98.2133 36.8755Z" fill="#F8F4F4"/>
<path fill-rule="evenodd" clip-rule="evenodd" d="M108.244 43.8231C106.846 43.8231 105.698 42.7109 105.698 41.2101C105.698 39.6865 106.878 38.5667 108.244 38.5667C109.61 38.5667 110.717 39.6789 110.717 41.2101C110.709 42.7109 109.642 43.8231 108.244 43.8231ZM110.563 37.1193V37.8125H110.491C110.046 37.2945 109.165 36.8374 108.05 36.8374C105.763 36.8374 103.629 38.7419 103.629 41.1797C103.629 43.6174 105.73 45.4915 108.05 45.4915C109.157 45.4915 109.998 45.042 110.491 44.5164H110.563V45.1411C110.563 46.8094 109.61 47.6779 108.09 47.6779C106.838 47.6779 106.102 46.8475 105.763 46.1542L103.993 46.8475C104.51 47.9902 105.835 49.4224 108.082 49.4224C110.442 49.4224 112.471 48.1045 112.471 44.9049V37.1117L110.563 37.1193Z" fill="#F8F4F4"/>
<path fill-rule="evenodd" clip-rule="evenodd" d="M113.885 45.2781H115.905V32.5256H113.885V45.2781Z" fill="#F8F4F4"/>
<path fill-rule="evenodd" clip-rule="evenodd" d="M121.297 38.5439C122.105 38.5439 122.768 38.9248 122.986 39.4429L118.856 41.035C118.824 39.4124 120.262 38.5439 121.297 38.5439ZM121.451 43.8232C120.416 43.8232 119.681 43.3736 119.236 42.5053L125.387 40.1056L125.168 39.618C124.797 38.6429 123.625 36.8679 121.224 36.8679C118.864 36.8679 116.876 38.6353 116.876 41.2102C116.876 43.648 118.824 45.5525 121.451 45.5525C123.552 45.5525 124.772 44.3412 125.29 43.648L123.706 42.6729C123.18 43.3355 122.477 43.8232 121.451 43.8232Z" fill="#F8F4F4"/>
</g>
</svg>
