<svg width="30" height="30" viewBox="0 0 30 30" fill="none" xmlns="http://www.w3.org/2000/svg">
<rect width="30" height="30" fill="white"/>
<path fill-rule="evenodd" clip-rule="evenodd" d="M21.8312 1.24619C26.1007 1.24619 29.5128 4.74313 29.9503 9.56305C29.9845 9.77596 30.1261 10.8964 29.6945 12.7231C29.0734 15.3592 27.6359 17.7559 25.5412 19.6547L14.9103 29.1387L4.45913 19.6541C2.36343 17.7559 0.926906 15.3586 0.304836 12.7231C-0.126805 10.8958 0.0157736 9.77538 0.0499532 9.56248C0.487453 4.74255 3.89956 1.24561 8.16909 1.24561C10.9679 1.24561 13.465 2.74512 14.9171 5.23009C16.383 2.77686 18.9875 1.24619 21.8312 1.24619ZM3.59878 10.8924C3.59878 7.58401 6.29019 4.89241 9.59878 4.89241C9.81167 4.89241 9.99917 5.00363 10.1056 5.17145C10.1642 5.26422 10.1984 5.3743 10.1984 5.49242C10.1984 5.8242 9.93081 6.09241 9.59878 6.09241C6.9523 6.09241 4.79898 8.2458 4.79898 10.8924C4.79898 11.2242 4.53042 11.4924 4.19839 11.4924C3.86734 11.4924 3.59878 11.2242 3.59878 10.8924Z" fill="#E1519F"/>
</svg>
