<svg width="103" height="90" viewBox="0 0 103 90" fill="none" xmlns="http://www.w3.org/2000/svg">
<rect width="102.857" height="90" transform="translate(0.140625)" fill="white"/>
<path fill-rule="evenodd" clip-rule="evenodd" d="M85.2969 35.0846C85.2969 34.3254 85.998 33.7118 86.8652 33.7118C87.7324 33.7118 88.4336 34.3254 88.4336 35.0846V81.7624H5.27734V9H88.4336V13.1186C88.4336 13.8778 87.7324 14.4915 86.8652 14.4915C85.998 14.4915 85.2969 13.8778 85.2969 13.1186V11.7458H8.41602V79.0167H85.2969V35.0846ZM95.1719 14.8936C95.7852 14.3568 96.7773 14.3568 97.3906 14.8936C98.0039 15.4304 98.0039 16.2981 97.3906 16.8349L48.752 59.394C48.4453 59.6617 48.0449 59.7963 47.6426 59.7963C47.2402 59.7963 46.8398 59.6617 46.5332 59.394L24.918 40.4799C24.3027 39.9431 24.3027 39.0755 24.918 38.5387C25.5312 38.0019 26.5215 38.0019 27.1348 38.5387L47.6426 56.4821L95.1719 14.8936Z" fill="#9BE151"/>
</svg>
